<?xml version="1.0" encoding="iso-8859-1"?>
<!-- Generator: Adobe Illustrator 21.0.0, SVG Export Plug-In . SVG Version: 6.00 Build 0)  -->
<svg version="1.1" id="Capa_1" xmlns="http://www.w3.org/2000/svg" xmlns:xlink="http://www.w3.org/1999/xlink" x="0px" y="0px"
	 viewBox="0 0 511.981 511.981" style="enable-background:new 0 0 511.981 511.981;" xml:space="preserve">
<g>
	<g>
		<g>
			<path d="M511.616,291.73c-1.05-10.726-3.081-22.579-5.444-36.301c-7.033-36.251-10.795-73.061-11.238-109.986
				c0.007-2.951-1.51-5.696-4.013-7.259s-5.635-1.722-8.284-0.421c-15.128,5.749-31.267,8.362-47.437,7.68
				c-46.447,0-94.14-30.353-97.502-32.538c-2.066-1.446-4.567-2.137-7.083-1.954c-4.412,0.171-17.826,0.691-64,54.511
				c-1.688,1.931-3.474,3.773-5.35,5.521c-1.012,0.618-1.884,1.441-2.56,2.415c-10.016,8.358-20.942,15.561-32.572,21.47
				c-1.138,0.321-2.192,0.886-3.089,1.655c-10.556,5.453-22.187,10.658-34.338,15.599c-1.011,0.203-1.975,0.594-2.842,1.152
				c-11.238,4.497-22.912,8.764-34.654,12.8c-0.068,0-0.128,0-0.196,0c-1.187,0.157-2.327,0.564-3.345,1.195
				c-41.31,13.807-82.816,24.371-108.262,30.345c-20.991,4.931-36.588,22.569-38.912,44.006c-0.046,0.311-0.074,0.624-0.085,0.939
				C0.256,304.171,0,305.776,0,307.405c0.073,29.638,21.866,54.74,51.2,58.974v17.613c0,9.426,7.641,17.067,17.067,17.067h25.6
				c9.426,0,17.067-7.641,17.067-17.067v-17.015H128v17.015c0,9.426,7.641,17.067,17.067,17.067h25.6
				c9.426,0,17.067-7.641,17.067-17.067v-17.015H204.8v17.015c0,9.426,7.641,17.067,17.067,17.067h25.6
				c9.426,0,17.067-7.641,17.067-17.067v-17.015h102.4v17.015c0,9.426,7.641,17.067,17.067,17.067h25.6
				c9.426,0,17.067-7.641,17.067-17.067v-17.067h8.533c2.855-0.029,5.705-0.237,8.533-0.623v9.156
				c0,9.426,7.641,17.067,17.067,17.067h25.6c9.426,0,17.067-7.641,17.067-17.067v-40.405
				C510.227,321.674,513.053,306.651,511.616,291.73z M18.099,299.529c2.915-12.549,12.7-22.356,25.242-25.301v-0.026
				c28.075-6.605,64.546-16.043,100.855-27.844c0.122,5.067-0.694,10.112-2.406,14.882c-1.227,2.829-0.833,6.1,1.032,8.557
				c1.865,2.456,4.91,3.715,7.965,3.293c3.055-0.422,5.644-2.46,6.773-5.33c3.174-8.654,4.387-17.905,3.55-27.085
				c7.091-2.466,14.131-5.009,21.043-7.68c-0.166,3.796-0.938,7.541-2.287,11.093c-1.288,2.831-0.933,6.139,0.926,8.633
				c1.859,2.494,4.928,3.778,8.009,3.353s5.687-2.494,6.8-5.398c2.958-7.829,4.215-16.198,3.686-24.55
				c7.228-3.021,14.234-6.135,20.949-9.387c-0.225,3.512-0.999,6.968-2.295,10.24c-1.841,4.336,0.18,9.343,4.514,11.187
				c1.051,0.452,2.184,0.684,3.328,0.683c3.425,0.002,6.52-2.044,7.859-5.197c3.109-8.155,4.362-16.9,3.669-25.6
				c7.291-3.969,14.356-8.339,21.163-13.09c0.142,5.108-0.677,10.197-2.415,15.002c-0.872,2.089-0.877,4.438-0.016,6.532
				c0.861,2.093,2.518,3.759,4.607,4.63c1.035,0.462,2.152,0.712,3.285,0.734c3.447,0.004,6.558-2.067,7.885-5.248
				c3.484-9.611,4.654-19.907,3.413-30.054c58.982-15.616,75.093-3.012,90.581,9.276c11.837,11.191,27.495,17.447,43.785,17.493
				c4.713,0,8.533-3.82,8.533-8.533s-3.82-8.533-8.533-8.533c-12.461-0.034-24.402-4.994-33.22-13.798
				c-16.213-12.851-34.295-27.187-87.347-16.691c26.325-29.329,37.751-35.951,41.225-37.393
				c10.59,6.647,57.173,34.133,104.96,34.133c14.434,0.185,28.829-1.536,42.812-5.12c0.205,8.849,0.674,17.28,1.271,25.438
				c-9.145,4.341-18.801,7.509-28.74,9.429c-4.276,0.89-7.19,4.866-6.751,9.212s4.089,7.659,8.457,7.675
				c0.591,0,1.18-0.063,1.758-0.188c9.197-1.864,18.196-4.593,26.88-8.149c2.313,21.692,5.581,40.764,8.465,57.506
				c1.536,8.96,2.901,17.067,3.959,24.474c-9.489,22.75-36.89,33.843-81.92,33.05c-0.594-0.13-1.201-0.196-1.809-0.196H85.333
				C43.605,315.64,24.636,304.615,18.099,299.529z M488.124,327.604c-1.109,1.468-1.713,3.255-1.724,5.094v42.761h-25.6v-13.781
				c1.101-0.478,2.313-1.016,3.61-1.63c2.821-1.26,4.741-3.946,5.019-7.023c0.278-3.077-1.129-6.064-3.678-7.809
				c-2.549-1.745-5.843-1.976-8.611-0.604c-4.156,1.954-7.407,3.14-7.373,3.14c-4.727,1.409-9.634,2.119-14.566,2.108h-17.067
				c-4.713,0-8.533,3.821-8.533,8.533v25.6H384v-17.015c4.713,0,8.533-3.821,8.533-8.533c0-4.713-3.82-8.533-8.533-8.533h-8.286
				c-0.094,0-0.171-0.051-0.265-0.051c-0.094,0-0.171,0.051-0.265,0.051H256c-4.713,0-8.533,3.82-8.533,8.533v25.549h-25.6v-17.067
				c4.713,0,8.533-3.82,8.533-8.533s-3.82-8.533-8.533-8.533h-8.533c-0.094,0-0.171,0.051-0.265,0.051H179.2
				c-4.713,0-8.533,3.82-8.533,8.533v25.549h-25.6v-17.067c4.713,0,8.533-3.82,8.533-8.533s-3.821-8.533-8.533-8.533h-8.533
				c-0.094,0-0.171,0.051-0.265,0.051H102.4c-4.713,0-8.533,3.82-8.533,8.533v25.549h-25.6v-17.067c4.713,0,8.533-3.82,8.533-8.533
				s-3.82-8.533-8.533-8.533h-8.533c-0.077,0-0.137,0.043-0.205,0.043c-18.481-0.107-34.774-12.147-40.303-29.781
				c20.784,9.196,43.399,13.502,66.108,12.587h323.192c0.486,0.097,0.98,0.151,1.476,0.162c2.091,0.051,4.139,0.077,6.17,0.077
				c35.422,0,61.244-7.586,77.653-22.263C492.868,316.598,490.942,322.315,488.124,327.604z"/>
			<path d="M452.267,247.459h8.533c4.713,0,8.533-3.82,8.533-8.533s-3.82-8.533-8.533-8.533h-8.533
				c-4.713,0-8.533,3.821-8.533,8.533S447.554,247.459,452.267,247.459z"/>
			<path d="M452.267,281.592h8.533c4.713,0,8.533-3.82,8.533-8.533s-3.82-8.533-8.533-8.533h-8.533c-4.713,0-8.533,3.82-8.533,8.533
				S447.554,281.592,452.267,281.592z"/>
		</g>
	</g>
</g>
<g>
</g>
<g>
</g>
<g>
</g>
<g>
</g>
<g>
</g>
<g>
</g>
<g>
</g>
<g>
</g>
<g>
</g>
<g>
</g>
<g>
</g>
<g>
</g>
<g>
</g>
<g>
</g>
<g>
</g>
</svg>
