<?xml version="1.0" encoding="iso-8859-1"?>
<!-- Generator: Adobe Illustrator 21.0.0, SVG Export Plug-In . SVG Version: 6.00 Build 0)  -->
<svg version="1.1" id="Capa_1" xmlns="http://www.w3.org/2000/svg" xmlns:xlink="http://www.w3.org/1999/xlink" x="0px" y="0px"
	 viewBox="0 0 512.042 512.042" style="enable-background:new 0 0 512.042 512.042;" xml:space="preserve">
<g transform="translate(-1)">
	<g>
		<path style="fill:#2C3E50;" d="M424.788,358.64v28.963c0.205,5.096-3.734,9.405-8.828,9.657h-26.483
			c-5.093-0.253-9.032-4.562-8.828-9.657V358.64H424.788z"/>
		<path style="fill:#2C3E50;" d="M504.236,331.61v47.351c0.154,5.044-3.785,9.271-8.828,9.472h-26.483
			c-5.043-0.201-8.982-4.428-8.828-9.472v-21.689c3.008-1.177,5.954-2.506,8.828-3.981
			C481.498,347.46,493.348,340.184,504.236,331.61z"/>
		<path style="fill:#2C3E50;" d="M133.477,358.64v0.097h-35.31v28.866c0.205,5.096-3.734,9.405-8.828,9.657H62.857
			c-5.093-0.253-9.032-4.562-8.828-9.657V358.64H133.477z"/>
		<path style="fill:#2C3E50;" d="M212.926,358.64v0.097h-35.31v28.866c0.205,5.096-3.734,9.405-8.828,9.657h-26.483
			c-5.093-0.253-9.032-4.562-8.828-9.657V358.64H212.926z"/>
		<path style="fill:#2C3E50;" d="M380.65,358.64v0.097H257.063v28.866c0.205,5.096-3.734,9.405-8.828,9.657h-26.483
			c-5.094-0.253-9.032-4.562-8.828-9.657V358.64H380.65z"/>
	</g>
	<path style="fill:#5E5F62;" d="M512.71,293.889c-0.265-2.737-0.618-5.65-1.059-8.651v-0.177
		c-3.187-23.446-9.71-53.16-13.489-90.121c1.103-0.6,1.845-1.042,1.951-1.103c4.1-2.594,5.338-8.011,2.772-12.129
		c-1.379-2.159-3.64-3.599-6.179-3.937c-0.538-7.715-0.98-15.634-1.174-23.923c-0.033-2.711-1.31-5.257-3.464-6.904
		c-2.154-1.647-4.945-2.213-7.57-1.535c-13.734,3.528-27.876,5.22-42.055,5.032c-52.966,0-105.931-35.222-105.931-35.222
		s-8.695-8.492-60.028,50.82c-1.951,0.494-4.008,1.059-6.029,1.607c-2.928-1.398-6.393-1.031-8.963,0.949
		c-2.57,1.981-3.808,5.238-3.201,8.425c0.318,1.924,0.459,3.672,0.662,5.491c-7.195,5.397-14.748,10.299-22.607,14.671
		c-1.959-3.724-6.275-5.548-10.311-4.357c-4.036,1.191-6.67,5.065-6.294,9.256c0.141,1.271,0.168,2.436,0.247,3.655
		c-7.221,3.531-14.795,6.974-22.643,10.293c-1.509-4.147-5.873-6.518-10.174-5.528c-4.301,0.99-7.188,5.031-6.731,9.421
		c0.088,1.006,0.088,1.907,0.15,2.878c-7.486,2.895-15.13,5.694-22.828,8.386c-1.181-4.076-5.145-6.693-9.357-6.179
		c-4.832,0.61-8.257,5.019-7.654,9.852c0.088,0.706,0.097,1.333,0.168,2.022c-39.662,13.003-79.06,23.084-105.931,29.369
		c-9.676,2.309-18.291,7.814-24.452,15.625c-5.131,6.449-8.316,14.227-9.181,22.422c-0.252,1.635-0.37,3.289-0.353,4.943
		c0.029,29.177,23.7,52.808,52.877,52.789h0.15v-0.079h388.414c5.979,0.017,11.927-0.846,17.655-2.56c0,0,3.796-1.324,8.828-3.708
		c12.49-5.394,24.335-12.175,35.31-20.215C511.141,322.762,514.092,308.283,512.71,293.889z"/>
	<path style="fill:#2C2F38;" d="M511.651,285.062v0.177c-15.448,41.49-72.21,42.019-95.073,41.49l-0.618-0.177H80.512
		c-56.938,0-76.447-19.244-79.095-22.246c0.865-8.195,4.05-15.973,9.181-22.422c6.161-7.811,14.776-13.316,24.452-15.625
		c64.088-15.007,199.68-51.553,239.669-98.163c52.966-61.705,61.793-52.877,61.793-52.877s52.966,35.222,105.931,35.222
		c14.188,0.191,28.338-1.501,42.081-5.032c2.625-0.678,5.417-0.112,7.57,1.535c2.154,1.647,3.431,4.193,3.464,6.904
		C496.918,210.583,507.361,253.485,511.651,285.062z"/>
	<path style="fill:#E6E7E8;" d="M415.96,211.881c-16.866-0.037-33.082-6.51-45.339-18.097
		c-16.64-13.241-33.836-26.854-100.882-7.662c-3.032,0.869-6.298,0.054-8.567-2.138c-2.269-2.192-3.196-5.427-2.432-8.488
		s3.102-5.481,6.135-6.35c75.767-21.689,97.518-4.414,116.718,10.805c9.122,9.108,21.475,14.239,34.366,14.274
		c4.875,0,8.828,3.952,8.828,8.828C424.788,207.929,420.835,211.881,415.96,211.881z"/>
	<g>
		<path style="fill:#FF5364;" d="M460.098,207.555c-4.519-0.017-8.295-3.444-8.749-7.94c-0.454-4.496,2.56-8.609,6.984-9.53
			c11.332-2.035,22.279-5.817,32.45-11.211c4.144-2.589,9.602-1.328,12.191,2.816c2.589,4.144,1.328,9.602-2.816,12.191
			c-11.912,6.563-24.818,11.131-38.206,13.524C461.341,207.523,460.72,207.573,460.098,207.555z"/>
		<path style="fill:#FF5364;" d="M468.926,247.191h-8.828c-4.875,0-8.828-3.952-8.828-8.828s3.952-8.828,8.828-8.828h8.828
			c4.875,0,8.828,3.952,8.828,8.828S473.801,247.191,468.926,247.191z"/>
		<path style="fill:#FF5364;" d="M468.926,282.502h-8.828c-4.875,0-8.828-3.952-8.828-8.828s3.952-8.828,8.828-8.828h8.828
			c4.875,0,8.828,3.952,8.828,8.828S473.801,282.502,468.926,282.502z"/>
	</g>
	<path style="fill:#464F5D;" d="M72.823,273.365l92.072-25.114c2.591-0.703,5.123-1.606,7.574-2.701l75.767-33.668l24.126-12.067
		c7.355-3.673,15.463-5.586,23.684-5.588h12.041c2.653-0.003,5.166,1.187,6.845,3.24c1.679,2.054,2.345,4.754,1.815,7.353
		l-2.904,14.521c-2.374,11.866-10.659,21.69-21.954,26.033l-94.605,36.352c-1.339,0.52-2.71,0.953-4.105,1.298l-28.999,7.256
		c-2.801,0.697-5.676,1.05-8.563,1.05H54.029c-4.875,0-8.828-3.952-8.828-8.828s3.952-8.828,8.828-8.828h16.472
		C71.285,273.673,72.066,273.569,72.823,273.365z"/>
	<g>
		<path style="fill:#5E5F62;" d="M147.072,273.674c-2.947,0-5.699-1.471-7.337-3.921c-1.638-2.45-1.945-5.555-0.82-8.279
			c2.805-8.579,3.448-17.719,1.871-26.606c-0.499-4.778,2.914-9.077,7.681-9.675s9.136,2.724,9.833,7.477
			c2.027,11.918,0.969,24.156-3.072,35.549C153.864,271.52,150.644,273.674,147.072,273.674z"/>
		<path style="fill:#5E5F62;" d="M186.443,256.019c-2.953-0.001-5.71-1.479-7.345-3.938c-1.636-2.459-1.933-5.573-0.794-8.297
			c2.577-7.666,3.321-15.829,2.172-23.834c-0.287-3.141,1.124-6.197,3.7-8.016c2.577-1.819,5.928-2.125,8.792-0.803
			s4.805,4.072,5.092,7.213c1.489,10.883,0.295,21.966-3.478,32.282C193.201,253.896,189.994,256.022,186.443,256.019z"/>
		<path style="fill:#5E5F62;" d="M225.805,238.364c-1.184,0.002-2.355-0.238-3.443-0.706c-4.484-1.908-6.574-7.088-4.67-11.573
			c2.648-7.71,3.363-15.952,2.083-24.002c-0.539-4.846,2.953-9.211,7.799-9.75c4.846-0.539,9.211,2.953,9.75,7.799
			c1.678,11.062,0.511,22.37-3.39,32.856C232.55,236.249,229.348,238.366,225.805,238.364z"/>
		<path style="fill:#5E5F62;" d="M265.273,220.709c-1.167,0.002-2.322-0.229-3.399-0.68c-2.161-0.901-3.876-2.624-4.766-4.79
			c-0.891-2.165-0.885-4.596,0.017-6.757c3.157-10.2,3.571-21.051,1.201-31.462c-0.508-3.113,0.684-6.26,3.126-8.256
			c2.442-1.996,5.763-2.538,8.713-1.421c2.95,1.117,5.079,3.722,5.587,6.835c2.992,13.656,2.189,27.87-2.322,41.101
			C272.057,218.571,268.839,220.712,265.273,220.709z"/>
	</g>
</g>
<g>
</g>
<g>
</g>
<g>
</g>
<g>
</g>
<g>
</g>
<g>
</g>
<g>
</g>
<g>
</g>
<g>
</g>
<g>
</g>
<g>
</g>
<g>
</g>
<g>
</g>
<g>
</g>
<g>
</g>
</svg>
